<svg width="368" height="191" viewBox="0 0 368 191" fill="none" xmlns="http://www.w3.org/2000/svg">
<path d="M167.658 190.604H69L117.658 0L167.658 37.5839L147.188 58.3893L167.658 190.604Z" fill="#F42727"/>
<path d="M170.678 46.9799L197.188 190.604H269L226.047 0L170.678 46.9799Z" fill="#F42727"/>
<path d="M0.528 90.536H7.376V130.408H30.608V137H0.528V90.536ZM40.5905 90.536H47.4385V137H40.5905V90.536ZM100.978 138.6L65.2015 103.08L67.1855 103.72L67.3775 137H60.4655V89.064H60.7855L96.1135 124.648L94.5135 124.2L94.3855 90.536H101.17V138.6H100.978ZM114.278 90.536H144.806V97.128H121.126V110.376H142.182V116.968H121.126V130.408H145.702V137H114.278V90.536ZM151.48 137L171.896 88.68H172.28L192.696 137H184.888L170.04 99.368L174.968 96.104L158.2 137H151.48ZM163.896 119.592H180.408L182.776 125.48H161.848L163.896 119.592ZM201.028 90.536H228.868V97.128H207.876V111.08H226.244V117.608H207.876V137H201.028V90.536ZM238.841 90.536H245.689V130.408H268.921V137H238.841V90.536ZM278.903 90.536H309.431V97.128H285.751V110.376H306.807V116.968H285.751V130.408H310.327V137H278.903V90.536ZM317.001 90.536H325.705L355.913 137H347.145L317.001 90.536ZM316.361 137L332.553 111.592L335.881 118.312L324.809 137H316.361ZM336.137 109.096L347.081 90.536H355.337L339.785 114.92L336.137 109.096Z" fill="#C3C3C3"/>
</svg>
